<svg xmlns="http://www.w3.org/2000/svg" width="220" height="55" viewBox="0 0 220 55" fill="none">
    <path
        d="M72.336 14.7196C72.336 14.3717 72.6231 14.09 72.9775 14.09H80.1211C83.1708 14.09 85.3323 14.5003 86.6077 15.319C87.883 16.1396 88.6902 17.499 89.0274 19.3974C89.3645 21.2976 89.534 24.4778 89.534 28.9382C89.534 33.3985 89.3645 36.5788 89.0274 38.479C88.6902 40.3792 87.8849 41.7387 86.6077 42.5574C85.3323 43.3779 83.1708 43.7882 80.1211 43.7882H72.9775C72.6231 43.7882 72.336 43.5065 72.336 43.1586V14.7196ZM79.9901 39.343C81.5428 39.343 82.6005 39.171 83.1573 38.825C83.714 38.479 84.0801 37.6527 84.2573 36.3424C84.4326 35.034 84.5212 32.5647 84.5212 28.9401C84.5212 25.3155 84.4326 22.882 84.2573 21.5585C84.082 20.235 83.714 19.3993 83.1573 19.0551C82.5986 18.7091 81.5428 18.5371 79.9901 18.5371H77.9923C77.6378 18.5371 77.3507 18.8188 77.3507 19.1667V38.7134C77.3507 39.0613 77.6378 39.343 77.9923 39.343H79.9901Z"
        fill="white" />
    <path
        d="M102.465 30.7193V27.5069C102.465 27.1779 102.736 26.9113 103.072 26.9113H109.951C110.287 26.9113 110.558 27.1779 110.558 27.5069V42.8088C110.558 43.0811 110.381 43.3231 110.109 43.3874C109.256 43.5935 108.239 43.7637 107.062 43.8979C105.669 44.0548 104.341 44.1361 103.081 44.1361C100.353 44.1361 98.3228 43.7258 96.9897 42.9071C95.6546 42.0866 94.7395 40.6269 94.2405 38.5243C93.7416 36.4237 93.493 33.2302 93.493 28.9419C93.493 24.6537 93.757 21.4602 94.2849 19.3595C94.8127 17.2589 95.7663 15.7973 97.1438 14.9786C98.5213 14.158 100.619 13.7478 103.434 13.7478C104.547 13.7478 105.765 13.8272 107.085 13.986C108.2 14.1202 109.179 14.2904 110.023 14.4965C110.292 14.5627 110.471 14.8028 110.471 15.0751V18.07C110.471 18.4331 110.157 18.7091 109.791 18.6562C109.052 18.5522 108.275 18.4558 107.458 18.3688C106.387 18.2534 105.574 18.1967 105.017 18.1967C102.906 18.1967 101.448 18.3763 100.64 18.7356C99.8332 19.0948 99.2765 19.9873 98.9701 21.411C98.6619 22.8367 98.5078 25.3476 98.5078 28.9438C98.5078 32.2829 98.6099 34.671 98.816 36.1098C99.0222 37.5506 99.4325 38.5281 100.047 39.0462C100.664 39.5643 101.688 39.8233 103.126 39.8233C103.765 39.8233 104.453 39.776 105.189 39.6815C105.489 39.6437 105.721 39.3846 105.721 39.0859V31.9142C105.721 31.5852 105.449 31.3186 105.114 31.3186H103.072C102.736 31.313 102.465 31.0464 102.465 30.7193Z"
        fill="white" />
    <path
        d="M119.443 43.1908V19.2631C119.443 18.9322 119.17 18.6637 118.834 18.6637H113.984C113.646 18.6637 113.375 18.3953 113.375 18.0663V14.6875C113.375 14.3566 113.648 14.09 113.984 14.09H129.875C130.213 14.09 130.486 14.3585 130.486 14.6875V18.0663C130.486 18.3971 130.213 18.6637 129.875 18.6637H125.067C124.73 18.6637 124.458 18.9322 124.458 19.2631V43.1908C124.458 43.5216 124.184 43.7882 123.847 43.7882H120.052C119.717 43.7882 119.443 43.5216 119.443 43.1908Z"
        fill="white" />
    <path
        d="M133.649 43.1983V14.6818C133.649 14.3547 133.919 14.09 134.252 14.09H138.061C138.394 14.09 138.664 14.3547 138.664 14.6818V38.6227C138.664 38.9498 138.934 39.2145 139.267 39.2145H146.418C146.752 39.2145 147.021 39.4792 147.021 39.8063V43.1983C147.021 43.5254 146.752 43.7901 146.418 43.7901H134.252C133.919 43.7882 133.649 43.5235 133.649 43.1983Z"
        fill="white" />
    <path
        d="M150.275 43.2078V14.6723C150.275 14.3509 150.541 14.09 150.869 14.09H163.406C163.734 14.09 164 14.3509 164 14.6723V17.9547C164 18.2761 163.734 18.5371 163.406 18.5371H155.883C155.556 18.5371 155.29 18.798 155.29 19.1194V26.6749C155.29 26.9963 155.556 27.2573 155.883 27.2573H162.439C162.767 27.2573 163.033 27.5182 163.033 27.8396V31.122C163.033 31.4434 162.767 31.7044 162.439 31.7044H155.883C155.556 31.7044 155.29 31.9653 155.29 32.2867V43.2097C155.29 43.5311 155.024 43.792 154.697 43.792H150.869C150.541 43.7882 150.275 43.5292 150.275 43.2078Z"
        fill="white" />
    <path
        d="M179.09 43.2002L177.894 37.6451C177.821 37.301 177.511 37.0552 177.152 37.0552H170.642C170.282 37.0552 169.972 37.3029 169.901 37.6489L168.741 43.1945C168.668 43.5406 168.36 43.7882 167.999 43.7882H164.505C164.019 43.7882 163.659 43.3477 163.765 42.8826L170.199 14.6704C170.276 14.332 170.585 14.09 170.939 14.09H176.985C177.339 14.09 177.645 14.332 177.724 14.6704L184.159 42.8826C184.265 43.3477 183.905 43.7882 183.419 43.7882H179.832C179.474 43.7882 179.163 43.5424 179.09 43.2002ZM174.027 18.9682H173.763L171.132 31.763C171.037 32.2224 171.396 32.6535 171.874 32.6535H175.875C176.353 32.6535 176.711 32.2243 176.619 31.7649L174.027 18.9682Z"
        fill="white" />
    <path
        d="M198.637 43.9395C197.683 44.07 196.781 44.1343 195.932 44.1343C193.204 44.1343 191.21 43.7107 189.95 42.8599C188.69 42.0109 187.852 40.5569 187.444 38.4998C187.033 36.4426 186.827 33.2548 186.827 28.9382C186.827 24.6215 187.039 21.5131 187.465 19.4408C187.891 17.3686 188.732 15.9013 189.994 15.0373C191.254 14.1732 193.235 13.7421 195.932 13.7421C196.841 13.7421 197.764 13.8064 198.702 13.9368C199.378 14.0295 199.939 14.1429 200.386 14.2734C200.663 14.3547 200.856 14.5967 200.856 14.8822V17.8129C200.856 18.1948 200.504 18.4822 200.118 18.4312C198.879 18.2705 197.806 18.1892 196.899 18.1892C195.227 18.1892 194.061 18.4047 193.402 18.8358C192.743 19.2669 192.318 20.1745 192.127 21.5547C191.934 22.9369 191.84 25.3968 191.84 28.9363C191.84 32.4758 191.934 34.9376 192.127 36.3178C192.318 37.7 192.743 38.6057 193.402 39.0368C194.061 39.4678 195.227 39.6834 196.899 39.6834C198.08 39.6834 199.186 39.6078 200.216 39.4584C200.606 39.4017 200.947 39.6853 200.947 40.071V42.9695C200.947 43.2475 200.775 43.5008 200.502 43.5746C199.985 43.7221 199.363 43.8412 198.637 43.9395Z"
        fill="white" />
    <path
        d="M204.859 43.1889V14.6894C204.859 14.3585 205.133 14.09 205.47 14.09H218.674C219.012 14.09 219.285 14.3585 219.285 14.6894V17.9358C219.285 18.2667 219.012 18.5352 218.674 18.5352H210.485C210.148 18.5352 209.874 18.8037 209.874 19.1345V25.964C209.874 26.2949 210.148 26.5634 210.485 26.5634H217.399C217.736 26.5634 218.01 26.8319 218.01 27.1627V30.4092C218.01 30.7401 217.736 31.0086 217.399 31.0086H210.485C210.148 31.0086 209.874 31.277 209.874 31.6079V38.7399C209.874 39.0708 210.148 39.3393 210.485 39.3393H218.674C219.012 39.3393 219.285 39.6078 219.285 39.9386V43.1851C219.285 43.516 219.012 43.7845 218.674 43.7845H205.47C205.133 43.7882 204.859 43.5197 204.859 43.1889Z"
        fill="white" />
    <path
        d="M18.3723 43.7429C21.7841 44.2288 22.5374 39.1445 19.1255 38.6567C18.9695 38.634 18.8211 38.6246 18.6767 38.6246C15.6539 38.6246 15.1164 43.2777 18.3723 43.7429ZM7.31982 40.9616C9.14038 41.2206 9.54302 38.496 7.72246 38.237C7.63962 38.2256 7.56063 38.2199 7.48357 38.2199C5.87107 38.2199 5.5821 40.712 7.31982 40.9616ZM9.36578 31.8254C12.0359 32.2054 12.6274 28.2102 9.95722 27.8302C9.83585 27.8132 9.71833 27.8056 9.6066 27.8056C7.24083 27.8056 6.817 31.4623 9.36578 31.8254ZM1.46512 27.7621C3.28569 28.0211 3.69025 25.2966 1.86969 25.0375C1.78685 25.0262 1.70787 25.0205 1.6308 25.0205C0.0163814 25.0186 -0.272597 27.5125 1.46512 27.7621ZM8.07501 21.4091C9.89557 21.6682 10.3001 18.9436 8.47958 18.6845C8.39674 18.6732 8.31775 18.6675 8.24069 18.6675C6.62627 18.6675 6.33729 21.1615 8.07501 21.4091ZM17.068 21.9197C20.4799 22.4056 21.2331 17.3213 17.8213 16.8335C17.6652 16.8108 17.5169 16.8013 17.3724 16.8013C14.3516 16.8013 13.8141 21.4564 17.068 21.9197ZM41.608 46.8002L45.3127 47.3731C44.2242 48.4339 43.9141 50.1601 43.5326 52.7259L31.8521 48.8536C34.4337 48.5624 36.9324 47.9385 39.2943 47.0196C39.5871 47.2824 39.9628 47.4091 40.3384 47.4091C40.8258 47.4091 41.3075 47.1992 41.608 46.8002ZM42.3651 45.6242C46.1373 43.6445 49.4316 40.8859 52.017 37.5393L52.8878 37.4693C53.7104 38.4374 54.4637 39.4603 55.1437 40.5286C55.452 43.8525 55.4135 45.6544 52.7125 45.921C52.1576 45.9759 51.5431 45.9872 50.8861 45.9986C49.2004 46.0704 48.1197 46.1782 46.9965 46.1782C45.7751 46.1801 44.5074 46.0553 42.3651 45.6242ZM46.2066 31.7403C47.8865 32.7745 49.4682 33.9884 50.917 35.38C50.707 35.813 50.7262 36.35 50.9516 36.7622C48.3913 40.0786 45.0931 42.7918 41.3248 44.6901C40.7122 44.2118 39.7836 44.2742 39.2403 44.8112C34.8209 43.3912 30.9659 40.9918 27.7949 37.7718C27.8546 37.6754 27.9085 37.5714 27.9509 37.4617C33.9328 37.4428 39.5563 35.3932 44.0219 31.901C44.3148 32.0693 44.65 32.1506 44.9852 32.1506C45.4283 32.1506 45.8675 32.0088 46.2066 31.7403ZM22.8148 30.8686C23.4467 30.292 23.7935 29.3749 23.674 28.509C30.203 26.7279 37.0845 27.3537 43.076 30.0764C43.0471 30.3638 43.0857 30.6436 43.1781 30.9008C38.9552 34.1945 33.6457 36.1325 27.9972 36.1609C27.7737 35.4689 27.1649 34.9262 26.3827 34.8166C26.0225 34.7655 25.6699 34.8128 25.354 34.9357C24.3907 33.6537 23.5411 32.2943 22.8148 30.8686ZM53.8106 36.5277C53.9628 36.0853 53.8896 35.5804 53.643 35.2042C55.4674 32.2886 56.789 29.0119 57.4729 25.4724C58.0065 26.2854 61.3491 31.3054 61.1545 31.4189C60.7538 31.6533 59.1162 31.4567 57.9314 31.9445C55.7621 32.8369 57.1589 34.1813 57.6694 35.121C58.5768 36.7924 55.2208 36.2687 56.5135 37.9533L55.7236 39.016C55.1303 38.1538 54.4926 37.3237 53.8106 36.5277ZM50.0442 26.709C52.1364 26.3573 54.2055 25.7825 56.213 24.977C55.5753 28.4504 54.2961 31.6647 52.516 34.5159C52.3214 34.4932 52.1307 34.5065 51.9496 34.55C50.3987 33.0468 48.6995 31.7365 46.8925 30.6247L46.7403 29.4468C47.2604 28.906 47.7575 28.3426 48.2295 27.7564C48.3373 27.7791 48.4452 27.7886 48.5512 27.7886C49.2293 27.7905 49.8439 27.3499 50.0442 26.709ZM27.3845 21.3675C33.1082 25.565 40.1362 27.5277 47.1025 27.055C46.6863 27.5674 46.249 28.0609 45.7943 28.5354C45.6325 28.4636 45.4591 28.4125 45.2742 28.3861C44.6577 28.2991 44.0682 28.5052 43.6521 28.9004C37.3408 26.0264 30.0778 25.3741 23.1789 27.2932C23.1115 27.2025 23.0402 27.1136 22.9632 27.0323C23.7261 25.1037 24.697 23.2923 25.8472 21.6152C26.0032 21.6549 26.1612 21.6738 26.3192 21.6738C26.7025 21.6738 27.0782 21.5642 27.3845 21.3675ZM52.855 18.8188C53.0496 18.7923 53.2346 18.7394 53.4099 18.6619C54.585 20.1461 55.61 21.7514 56.4634 23.455C54.3423 24.3776 52.1422 25.0281 49.9113 25.4081C51.1847 23.3963 52.1846 21.186 52.855 18.8188ZM54.3693 17.7562C54.8355 16.8448 54.4695 15.6971 53.5987 15.1923L53.7798 10.7622C55.6735 13.8536 56.7774 17.6579 56.7562 21.2314C56.0434 20.0156 55.2458 18.8547 54.3693 17.7562ZM28.1802 20.3257C28.3304 19.8322 28.2611 19.282 28.0164 18.8528C31.4244 15.0335 35.8496 12.1898 40.7892 10.662C41.531 11.5431 42.9412 11.6585 43.8235 10.9192C46.4339 12.2087 48.8093 13.8858 50.8746 15.873C50.3197 16.7824 50.6434 18.0133 51.5489 18.5541C50.9131 20.7738 49.9691 22.8499 48.7708 24.7388C48.0195 24.6348 47.3163 25.0716 47.0755 25.7503C46.4051 25.7976 45.7346 25.8203 45.0642 25.8203C39.0669 25.8203 33.1178 23.9465 28.1802 20.3257ZM44.5151 9.79984L44.5209 9.77715C47.0562 9.35551 49.6898 9.26854 52.3618 9.5616C52.5429 11.3578 52.5198 13.1333 52.2906 14.9427C52.1576 14.9616 52.0286 14.9938 51.9033 15.0392C49.7456 12.9385 47.2566 11.1669 44.5151 9.79984ZM51.8976 8.20214C49.3411 7.97525 46.8212 8.07735 44.3899 8.47631C44.1009 7.84101 43.4979 7.35886 42.7447 7.25109C41.8874 7.12819 41.0763 7.52336 40.6371 8.19647C34.4221 6.13175 27.4288 6.17713 21.2775 8.31748C29.2552 -0.975634 43.8428 -1.05316 51.8976 8.20214ZM19.4184 8.52357C16.8445 7.89395 16.0431 11.8664 18.6767 12.2408C20.0387 12.4356 21.1696 11.1517 20.8228 9.87547C26.9915 7.48932 33.9597 7.33806 40.2768 9.45383C35.1176 11.0742 30.5363 14.0522 27.0146 18.002C25.2615 17.3553 23.6972 19.4144 24.7587 20.8759C23.6008 22.5606 22.6164 24.3758 21.8323 26.2987C20.2102 25.7522 18.4281 26.7978 18.1796 28.4806C17.8945 30.4092 19.7883 32.0031 21.657 31.5002C22.4314 33.0128 23.335 34.4479 24.3541 35.7941C23.4833 37.3275 25.09 39.1804 26.7661 38.5924C29.9834 41.8805 33.9809 44.4235 38.4813 45.9324C35.5876 47.0139 32.4859 47.6378 29.2821 47.7248C28.8044 46.2462 26.4829 46.3691 26.2459 47.9668C26.0283 49.436 27.9162 50.2736 28.92 49.2488L44.623 54.4541L44.781 53.3896H44.7791C45.3069 49.8179 45.5689 48.0387 48.2526 47.4979C53.0804 47.4715 57.2359 47.8099 56.5405 41.0693C56.4557 40.3092 56.3632 40.2601 56.8757 39.7042C58.3186 38.1349 57.8659 37.543 57.5769 37.1687C57.4787 37.042 57.575 37.1668 57.6945 37.2916C57.7869 37.3899 57.8948 37.4863 57.9353 37.4655C59.594 36.5958 59.4168 35.5615 58.8427 34.5065C58.0509 33.0506 57.8274 33.3947 58.4439 33.1413C59.7905 32.5874 64.0693 33.5044 61.8654 29.8703L58.0027 23.7764L58.0721 23.7461C58.0162 23.6251 57.9603 23.5041 57.9025 23.3831C58.1472 21.3789 58.1318 21.186 57.9738 19.2764C57.5191 14.3906 55.5464 10.0702 52.227 6.60256C47.9617 2.14791 42.3054 -0.00188952 36.6838 1.2461e-06C30.124 0.00567354 23.6143 2.92691 19.4184 8.52357Z"
        fill="white" />
</svg>