<?xml version="1.0" encoding="UTF-8"?>
<svg version="1.1" xmlns="http://www.w3.org/2000/svg" width="512" height="512">
<path d="M0 0 C3.31890061 1.38313336 4.81121564 2.74833478 6.69921875 5.7890625 C7.18165039 6.55766602 7.66408203 7.32626953 8.16113281 8.11816406 C8.66483398 8.94541992 9.16853516 9.77267578 9.6875 10.625 C10.47979004 11.90455566 10.47979004 11.90455566 11.28808594 13.20996094 C16.08638752 21.01554651 20.627839 28.94931872 25 37 C25.36641602 37.67111816 25.73283203 38.34223633 26.11035156 39.03369141 C27.20390848 41.04045925 28.29114084 43.0504797 29.375 45.0625 C29.69694336 45.65772461 30.01888672 46.25294922 30.35058594 46.86621094 C32.46539031 50.83398676 34.27753514 54.85234688 36 59 C37.06486855 58.10698344 38.12675041 57.2104053 39.1875 56.3125 C39.77917969 55.81363281 40.37085938 55.31476562 40.98046875 54.80078125 C43.41899192 52.62639212 45.69317662 50.31362817 48 48 C58.17595345 38.24057609 68.91903429 29.48066346 80.23828125 21.078125 C82.09031655 19.68451428 83.90124579 18.23466683 85.66796875 16.734375 C88 15 88 15 91 15 C91.96196563 19.27002336 92.91889594 23.54116068 93.875 27.8125 C94.14441406 29.00810547 94.41382813 30.20371094 94.69140625 31.43554688 C98.1696101 47.00262994 100.79304372 62.54580706 101.75390625 78.48828125 C101.84823141 80.99468415 101.84823141 80.99468415 103 83 C104.37091797 82.30777344 104.37091797 82.30777344 105.76953125 81.6015625 C151.59034601 59 151.59034601 59 169 59 C168.85982174 61.97953359 168.71313658 64.95849304 168.5625 67.9375 C168.52318359 68.78763672 168.48386719 69.63777344 168.44335938 70.51367188 C168.40146484 71.32255859 168.35957031 72.13144531 168.31640625 72.96484375 C168.27974854 73.7137085 168.24309082 74.46257324 168.20532227 75.23413086 C168 77 168 77 167 78 C166.7152914 79.49732873 166.48571439 81.00524537 166.28125 82.515625 C166.15363281 83.43730469 166.02601563 84.35898438 165.89453125 85.30859375 C165.69923828 86.76458984 165.69923828 86.76458984 165.5 88.25 C165.24085988 90.1512161 164.98048191 92.05226397 164.71875 93.953125 C164.54762695 95.22397949 164.54762695 95.22397949 164.37304688 96.52050781 C163.7761286 100.48798292 162.9519846 104.35004622 161.87890625 108.21484375 C161.66556641 108.98376953 161.45222656 109.75269531 161.23242188 110.54492188 C160.90081055 111.72924805 160.90081055 111.72924805 160.5625 112.9375 C160.34529297 113.72318359 160.12808594 114.50886719 159.90429688 115.31835938 C158.71442278 119.58832798 157.44667902 123.80799522 156 128 C156.54374268 127.93941406 157.08748535 127.87882812 157.64770508 127.81640625 C171.21308721 126.36421918 184.6807589 125.79953745 198.3125 125.8125 C199.06012604 125.8117749 199.80775208 125.8110498 200.57803345 125.81030273 C209.09562025 125.81123777 217.52832868 126.01222563 226 127 C226 130.41761705 225.24061454 132.82954062 224 136 C223.34 136.33 222.68 136.66 222 137 C221.73316406 137.83144531 221.46632813 138.66289062 221.19140625 139.51953125 C219.66894962 143.96710129 217.37707937 147.68824613 214.9375 151.6875 C214.02740058 153.18986608 213.11974127 154.69371376 212.21484375 156.19921875 C211.81386475 156.85752686 211.41288574 157.51583496 210.99975586 158.1940918 C209.85352359 160.13472844 209.85352359 160.13472844 209 163 C208.34 163 207.68 163 207 163 C205.92474806 165.65228812 204.90543849 168.28368454 204 171 C203.34 171 202.68 171 202 171 C201.75507813 171.53109375 201.51015625 172.0621875 201.2578125 172.609375 C199.66419057 175.6382465 197.78740366 178.41223973 195.875 181.25 C195.15054687 182.32765625 194.42609375 183.4053125 193.6796875 184.515625 C193.12539063 185.33546875 192.57109375 186.1553125 192 187 C196.9054928 188.92515335 201.75994831 190.53581349 206.8503418 191.88916016 C220.62918319 195.56405084 233.776003 200.70510189 247 206 C247.98693848 206.39413086 248.97387695 206.78826172 249.99072266 207.19433594 C252.32771664 208.12814798 254.6641538 209.06332145 257 210 C255.69539422 216.52302888 249.75951123 220.12057239 244.9296875 224.28515625 C243.24881217 225.77888959 241.67903885 227.31449492 240.125 228.9375 C238 231 238 231 236 231 C235.67 231.66 235.34 232.32 235 233 C233.86479721 233.93538393 232.69132763 234.82473297 231.5 235.6875 C228.55759671 237.84352648 225.66807182 240.04282185 222.8125 242.3125 C218.97501962 245.30466127 215.04773258 248.1471227 211.0625 250.9375 C210.49442627 251.3394458 209.92635254 251.7413916 209.34106445 252.15551758 C205.23745749 255 205.23745749 255 203 255 C203 255.66 203 256.32 203 257 C203.66 257.226875 204.32 257.45375 205 257.6875 C208.88658628 259.3878815 212.63679817 261.39623084 216 264 C216 264.66 216 265.32 216 266 C216.56074219 266.26167969 217.12148438 266.52335937 217.69921875 266.79296875 C232.3945422 274.5023999 244.88390483 287.84110153 257 299 C256.67 299.99 256.34 300.98 256 302 C254.35 302.33 252.7 302.66 251 303 C251 303.66 251 304.32 251 305 C250.42032471 305.19634033 249.84064941 305.39268066 249.2434082 305.5949707 C246.59770204 306.49485457 243.95511687 307.4035861 241.3125 308.3125 C239.94448242 308.7755957 239.94448242 308.7755957 238.54882812 309.24804688 C233.31834479 311.04103508 233.31834479 311.04103508 228.421875 313.56640625 C224.81964559 315.69869366 220.96674886 316.57134654 216.9375 317.625 C216.13505859 317.8415625 215.33261719 318.058125 214.50585938 318.28125 C211.65276863 319.04838809 208.7986705 319.80445142 205.92895508 320.50708008 C203.1534658 321.21632104 200.46412136 322.14795911 197.75 323.0625 C196.67234375 323.42472656 195.5946875 323.78695313 194.484375 324.16015625 C193.66453125 324.43730469 192.8446875 324.71445312 192 325 C192.3609375 325.48210937 192.721875 325.96421875 193.09375 326.4609375 C193.5578125 327.09257812 194.021875 327.72421875 194.5 328.375 C194.9640625 329.00148438 195.428125 329.62796875 195.90625 330.2734375 C197 332 197 332 197 334 C197.66 334 198.32 334 199 334 C200.43116088 336.11898173 201.72720429 338.22492022 203 340.4375 C203.39445312 341.11055176 203.78890625 341.78360352 204.1953125 342.47705078 C205.03793221 343.91553247 205.87768503 345.3556966 206.71484375 346.79736328 C207.96212224 348.93508109 209.22744676 351.0608433 210.5 353.18359375 C214.8847454 360.51689428 219.13160866 367.916801 223.1875 375.4375 C223.58646484 376.16565918 223.98542969 376.89381836 224.39648438 377.64404297 C225.32810795 379.39692209 226.17313031 381.19534097 227 383 C226.67 383.66 226.34 384.32 226 385 C222.60234748 385.9351698 219.37189614 386.12619858 215.86181641 386.12939453 C214.86372955 386.13254669 213.8656427 386.13569885 212.83731079 386.13894653 C211.76951385 386.1369223 210.70171692 386.13489807 209.6015625 386.1328125 C208.49324066 386.13376923 207.38491882 386.13472595 206.24301147 386.13571167 C203.90126488 386.13639139 201.55951639 386.13455163 199.21777344 386.13037109 C195.64513887 386.12503011 192.07263061 386.13031795 188.5 386.13671875 C186.22135389 386.13605773 183.94270786 386.13477608 181.6640625 386.1328125 C180.60031403 386.13483673 179.53656555 386.13686096 178.44058228 386.13894653 C173.17427228 386.12241885 168.19290865 385.86194641 163 385 C161.0003305 384.96364237 158.99940538 384.95123402 157 385 C157.4060949 386.82742705 157.81226463 388.6548375 158.21875 390.48217773 C158.57936032 392.10641568 158.93869215 393.7309379 159.296875 395.35571289 C160.17452463 399.32913444 161.06364231 403.29757818 162.015625 407.25390625 C164.22101039 416.54507284 165.84378606 425.86638344 167.25 435.3125 C167.4253125 436.48804443 167.600625 437.66358887 167.78125 438.87475586 C168.46557701 443.62675846 169.10316135 448.19037643 169 453 C166.03 452.67 163.06 452.34 160 452 C160 451.34 160 450.68 160 450 C159.1646875 449.8865625 158.329375 449.773125 157.46875 449.65625 C153.00219502 448.81122608 148.83762833 447.32643426 144.56640625 445.81640625 C140.72456431 444.4886531 137.0281866 443.54703769 133 443 C133 442.34 133 441.68 133 441 C132.39414062 440.82984375 131.78828125 440.6596875 131.1640625 440.484375 C125.00580194 438.70321656 118.75213167 436.8702556 113 434 C112.67 433.34 112.34 432.68 112 432 C110.34080104 431.63128912 108.67225729 431.30404678 107 431 C105.32535173 430.35364453 103.65730268 429.68961588 102 429 C101.96559814 429.54487061 101.93119629 430.08974121 101.89575195 430.65112305 C100.40225477 453.03968777 97.09555483 475.37610436 91 497 C81.68747141 493.56303866 74.34173669 486.7550497 66.99829102 480.26416016 C64.30375302 477.89711157 61.70892487 475.80790421 58.703125 473.82421875 C56 472 56 472 54 469 C53.01 468.67 52.02 468.34 51 468 C49.421875 466.3984375 49.421875 466.3984375 47.75 464.375 C42.11661442 457.31231352 42.11661442 457.31231352 35 452 C34.896875 452.66 34.79375 453.32 34.6875 454 C33.30629365 460.02708225 30.86979265 465.53372828 28 471 C27.34 471 26.68 471 26 471 C25.87995605 471.57508301 25.75991211 472.15016602 25.63623047 472.74267578 C24.96531072 475.1230764 24.03996581 476.96922313 22.8203125 479.1171875 C22.38589844 479.88933594 21.95148438 480.66148437 21.50390625 481.45703125 C21.04886719 482.25496094 20.59382813 483.05289062 20.125 483.875 C17.29966648 488.86615115 14.50558355 493.83949349 12 499 C11.34 499 10.68 499 10 499 C9.690625 499.94875 9.38125 500.8975 9.0625 501.875 C8 505 8 505 7 507 C6.34 507 5.68 507 5 507 C4.34 508.32 3.68 509.64 3 511 C-1 511 -1 511 -2.37207031 509.65478516 C-2.77006836 509.03909668 -3.16806641 508.4234082 -3.578125 507.7890625 C-4.01640625 507.12132812 -4.4546875 506.45359375 -4.90625 505.765625 C-5.3496875 505.05921875 -5.793125 504.3528125 -6.25 503.625 C-6.70890625 502.92632812 -7.1678125 502.22765625 -7.640625 501.5078125 C-11 496.30877976 -11 496.30877976 -11 494 C-11.66 493.67 -12.32 493.34 -13 493 C-14.35542972 490.8113624 -15.63167868 488.62592 -16.875 486.375 C-17.21402344 485.77042969 -17.55304688 485.16585938 -17.90234375 484.54296875 C-18.58865767 483.31908576 -19.27191752 482.09348526 -19.95214844 480.86621094 C-20.67109982 479.58576723 -21.40434068 478.31327356 -22.14941406 477.04785156 C-25 472.20311123 -25 472.20311123 -25 470 C-25.66 469.67 -26.32 469.34 -27 469 C-28.28306555 466.32646297 -29.47768734 463.66819741 -30.625 460.9375 C-30.94984375 460.17888672 -31.2746875 459.42027344 -31.609375 458.63867188 C-32.41213846 456.76162201 -33.20683143 454.8811244 -34 453 C-38.65913145 456.80337261 -42.57060181 460.66006193 -46.32421875 465.36328125 C-48.23459567 467.22912724 -49.47197661 467.37730792 -52 468 C-52.33 468.99 -52.66 469.98 -53 471 C-54.98075027 472.36176581 -56.98079663 473.69593116 -59 475 C-59.33 475.66 -59.66 476.32 -60 477 C-60.66 477 -61.32 477 -62 477 C-62 477.66 -62 478.32 -62 479 C-63.41752637 479.97876821 -64.84148291 480.94957212 -66.296875 481.87109375 C-68.45508932 483.30165324 -70.39283672 484.96497139 -72.36328125 486.640625 C-84.8362069 497 -84.8362069 497 -89 497 C-89.50744423 495.10614563 -90.00564574 493.20981334 -90.5 491.3125 C-90.7784375 490.25675781 -91.056875 489.20101563 -91.34375 488.11328125 C-91.9391715 485.28857328 -92.12786492 482.87163292 -92 480 C-92.66 479.67 -93.32 479.34 -94 479 C-94.27873891 477.19473 -94.53821357 475.38519772 -94.72265625 473.56787109 C-95.04118901 470.61863908 -95.48333322 467.70093139 -95.9375 464.76953125 C-96.11023438 463.63580078 -96.28296875 462.50207031 -96.4609375 461.33398438 C-96.81739143 459.00541035 -97.17671874 456.67727417 -97.5390625 454.34960938 C-98.71641183 446.57822518 -99.50622533 438.84435782 -100 431 C-103.28976808 429.90341064 -104.71303767 430.20046862 -108 431 C-108 431.66 -108 432.32 -108 433 C-109.60149886 433.67305018 -111.20631029 434.33822227 -112.8125 435 C-113.70582031 435.37125 -114.59914062 435.7425 -115.51953125 436.125 C-118 437 -118 437 -121 437 C-121.33 437.66 -121.66 438.32 -122 439 C-123.75 439.74609375 -123.75 439.74609375 -126 440.4375 C-127.22203125 440.82228516 -127.22203125 440.82228516 -128.46875 441.21484375 C-129.3040625 441.47394531 -130.139375 441.73304688 -131 442 C-132.50128039 442.49614232 -134.00132448 442.99604397 -135.5 443.5 C-144.5 446.5 -144.5 446.5 -146.73461914 447.24291992 C-148.28745074 447.76186925 -149.83864972 448.28572212 -151.38842773 448.8137207 C-155.95254718 450.36156073 -160.44728988 451.64785347 -165.16967773 452.62231445 C-165.77368408 452.74695068 -166.37769043 452.87158691 -167 453 C-166.59501279 441.57046849 -165.04445811 430.74230914 -162.6875 419.5625 C-162.38773743 418.0932893 -162.0889079 416.62388793 -161.79101562 415.15429688 C-159.72612239 405.05539672 -157.40863462 395.02190816 -155 385 C-155.91962021 385.04091515 -155.91962021 385.04091515 -156.8578186 385.08265686 C-163.24914016 385.3657811 -169.64079599 385.64012855 -176.03271484 385.90942383 C-178.41692611 386.01102098 -180.8010437 386.11484209 -183.18505859 386.22094727 C-186.61533659 386.3732293 -190.04587388 386.51746317 -193.4765625 386.66015625 C-195.07064438 386.73351952 -195.07064438 386.73351952 -196.69692993 386.80836487 C-201.63307407 387.00627268 -206.13961295 387.04854144 -211 386 C-213.45625393 385.7869844 -215.91488504 385.59996042 -218.375 385.4375 C-219.62023437 385.35371094 -220.86546875 385.26992188 -222.1484375 385.18359375 C-223.08945313 385.12300781 -224.03046875 385.06242187 -225 385 C-220.16074817 372.30608313 -213.19723968 360.47585349 -206 349 C-205.61666504 348.38850098 -205.23333008 347.77700195 -204.83837891 347.14697266 C-200.48244767 340.22980507 -195.99004724 333.43060988 -191.21484375 326.79296875 C-189.90651202 325.22298509 -189.90651202 325.22298509 -190 324 C-190.64437012 323.83395264 -191.28874023 323.66790527 -191.95263672 323.49682617 C-194.92728158 322.72906421 -197.9011405 321.95829814 -200.875 321.1875 C-202.39480469 320.79594727 -202.39480469 320.79594727 -203.9453125 320.39648438 C-221.33442676 315.88200279 -221.33442676 315.88200279 -228.4375 312.8125 C-229.91283203 312.18214844 -229.91283203 312.18214844 -231.41796875 311.5390625 C-232.60003906 311.03117187 -233.78210938 310.52328125 -235 310 C-237.53795248 308.92838548 -240.07761903 307.86089888 -242.61743164 306.79370117 C-246.41290592 305.19884872 -250.20641441 303.59933849 -254 302 C-254 298 -254 298 -252.125 295.75 C-250 294 -250 294 -248 294 C-247.67 293.01 -247.34 292.02 -247 291 C-244.953125 289.125 -244.953125 289.125 -242.25 287 C-238.62418955 284.11699323 -235.07279495 281.20641118 -231.59204102 278.14770508 C-225.45254136 272.78825997 -218.97974586 267.99696595 -212.3125 263.3125 C-211.4263501 262.68770752 -210.5402002 262.06291504 -209.62719727 261.41918945 C-208.38280884 260.55620239 -208.38280884 260.55620239 -207.11328125 259.67578125 C-206.36860596 259.15927002 -205.62393066 258.64275879 -204.85668945 258.1105957 C-203 257 -203 257 -201 257 C-201 256.34 -201 255.68 -201 255 C-202.65 254.67 -204.3 254.34 -206 254 C-206.33 253.01 -206.66 252.02 -207 251 C-207.680625 250.731875 -208.36125 250.46375 -209.0625 250.1875 C-212.56512223 248.77154633 -215.10551367 246.75652706 -218.07421875 244.453125 C-220.09157853 242.87760682 -220.09157853 242.87760682 -222.8125 241.3125 C-224.94005989 240.03596407 -226.27223272 238.75762993 -228 237 C-229.15850529 235.96991393 -230.32596792 234.94985393 -231.5 233.9375 C-235.92246039 230.10470099 -240.20533576 226.12845106 -244.484375 222.13671875 C-246.65887129 220.28974752 -248.4586741 219.20234774 -251 218 C-253.3125 215.5625 -253.3125 215.5625 -255 213 C-254 210 -254 210 -251.91577148 208.80834961 C-250.99352783 208.42686768 -250.07128418 208.04538574 -249.12109375 207.65234375 C-248.06937988 207.21639893 -247.01766602 206.7804541 -245.93408203 206.33129883 C-244.20327393 205.64136841 -244.20327393 205.64136841 -242.4375 204.9375 C-241.25269043 204.46014404 -240.06788086 203.98278809 -238.84716797 203.4909668 C-229.24226129 199.67931202 -219.48303394 196.40249618 -209.625 193.3125 C-208.92873505 193.09254364 -208.23247009 192.87258728 -207.5151062 192.64596558 C-205.52588898 192.02134096 -203.53350349 191.40849595 -201.5390625 190.80078125 C-199.82517334 190.27738159 -199.82517334 190.27738159 -198.07666016 189.7434082 C-195.23866321 189.05766779 -192.90148133 188.84384977 -190 189 C-191.61469432 184.65274606 -193.37195921 180.62804079 -196.6875 177.3125 C-197.120625 176.879375 -197.55375 176.44625 -198 176 C-198 175.34 -198 174.68 -198 174 C-198.66 174 -199.32 174 -200 174 C-200.24234375 173.49210938 -200.4846875 172.98421875 -200.734375 172.4609375 C-202.40064801 169.03866909 -204.07904101 165.75738369 -206.25 162.625 C-208 160 -208 160 -208 158 C-208.66 157.67 -209.32 157.34 -210 157 C-211.30046931 154.9581137 -212.50969262 152.9237704 -213.6875 150.8125 C-214.03619141 150.19407227 -214.38488281 149.57564453 -214.74414062 148.93847656 C-225 130.56880439 -225 130.56880439 -225 127 C-214.09060055 126.12969172 -203.25372794 125.80208254 -192.3125 125.8125 C-191.52983765 125.8117749 -190.74717529 125.8110498 -189.9407959 125.81030273 C-177.86154826 125.81153613 -165.97685876 126.31481384 -154 128 C-154.17128418 127.39115967 -154.34256836 126.78231934 -154.51904297 126.1550293 C-155.30951511 123.33393511 -156.09227959 120.51075432 -156.875 117.6875 C-157.14441406 116.73037109 -157.41382813 115.77324219 -157.69140625 114.78710938 C-159.30177753 108.95442314 -160.59856227 103.16349331 -161.57470703 97.19067383 C-161.90469312 94.96681608 -161.90469312 94.96681608 -163 93 C-162.505 91.515 -162.505 91.515 -162 90 C-162.66 89.67 -163.32 89.34 -164 89 C-163.67 87.35 -163.34 85.7 -163 84 C-163.66 83.67 -164.32 83.34 -165 83 C-165.37890625 80.69921875 -165.37890625 80.69921875 -165.5625 77.6875 C-165.67078125 76.07681641 -165.67078125 76.07681641 -165.78125 74.43359375 C-165.88953125 72.73396484 -165.88953125 72.73396484 -166 71 C-166.18267035 68.74960275 -166.36990899 66.49956995 -166.5625 64.25 C-166.70833333 62.5 -166.85416667 60.75 -167 59 C-144.01877703 63.78180726 -122.07583423 72.84100365 -101 83 C-99.86641269 79.31092016 -99.80151245 75.73256337 -99.6484375 71.890625 C-99.20950263 63.45476582 -97.78528704 55.33694238 -96.09863281 47.07128906 C-95.62288083 44.7396139 -95.1617527 42.40541056 -94.703125 40.0703125 C-93.03399306 31.65063216 -91.19389095 23.3015375 -89 15 C-85.72138693 15.60919099 -83.73969598 16.72115562 -81.12890625 18.7734375 C-80.39583252 19.34586182 -79.66275879 19.91828613 -78.9074707 20.50805664 C-78.13363037 21.12414795 -77.35979004 21.74023926 -76.5625 22.375 C-75.36403442 23.3175061 -75.36403442 23.3175061 -74.14135742 24.27905273 C-68.73501865 28.55399589 -63.43429671 32.93984166 -58.21459961 37.44018555 C-55.60495877 39.68236609 -52.98758968 41.77910688 -50.125 43.6875 C-46.78628627 46.15814816 -44.42763472 48.82896599 -41.77734375 51.99609375 C-39.10847061 55.0051749 -36.11254381 57.45914791 -33 60 C-32.86271484 58.99066406 -32.86271484 58.99066406 -32.72265625 57.9609375 C-31.81249128 54.23172104 -30.18739543 51.01408487 -28.4375 47.625 C-28.07817383 46.92093018 -27.71884766 46.21686035 -27.34863281 45.49145508 C-26.60078232 44.03151375 -25.84961809 42.57326531 -25.09521484 41.11669922 C-24.09182743 39.17747299 -23.10167247 37.232051 -22.11328125 35.28515625 C-18.33139584 27.93065971 -14.15695575 20.87274804 -9.75 13.875 C-9.24243164 13.06893311 -8.73486328 12.26286621 -8.21191406 11.43237305 C-5.66357393 7.43932786 -3.06026483 3.62859973 0 0 Z " fill="#00953D" transform="translate(255,0)"/>
<path d="M0 0 C0.66 0 1.32 0 2 0 C12.55570376 21.0691847 12.55570376 21.0691847 15.37890625 32.578125 C15.76389454 34.93365703 15.76389454 34.93365703 17 36 C17.23287008 37.68183948 17.41264166 39.3712416 17.5625 41.0625 C17.64628906 41.98160156 17.73007812 42.90070313 17.81640625 43.84765625 C17.87699219 44.55792969 17.93757812 45.26820313 18 46 C21.36131116 42.87497149 23.87679423 39.40146334 26.4375 35.625 C30.19933991 30.21968655 34.26129973 25.25580594 38.75 20.4375 C39.54555298 19.58115967 39.54555298 19.58115967 40.35717773 18.70751953 C43.70142123 15.18325356 47.14216495 11.9595106 51 9 C51.66 9 52.32 9 53 9 C53.8597283 18.30817446 54.15408275 27.52974327 54.125 36.875 C54.12886719 38.14085937 54.13273438 39.40671875 54.13671875 40.7109375 C54.13056331 46.57092085 54.08457947 52.23279172 53 58 C53.46672119 57.67837891 53.93344238 57.35675781 54.41430664 57.02539062 C87.97931526 34 87.97931526 34 97 34 C94.29450193 50.93685782 88.49610445 65.63577599 81 81 C83.54242904 80.37798054 86.08391875 79.75248241 88.625 79.125 C89.69427734 78.86396484 89.69427734 78.86396484 90.78515625 78.59765625 C94.93111479 77.57067569 98.94687727 76.3549344 103 75 C111.9202954 73.5132841 120.98447454 73.91247063 130 74 C123.30718507 87.62105552 111.65764357 101.24762228 100 111 C99.34 111 98.68 111 98 111 C98 111.66 98 112.32 98 113 C99.0209375 112.94199219 100.041875 112.88398438 101.09375 112.82421875 C110.56770037 112.46648132 119.3426794 113.34623422 128.625 115.3125 C129.63111328 115.52543701 130.63722656 115.73837402 131.67382812 115.95776367 C137.33040059 117.2242661 142.62732136 118.82412896 148 121 C144.19132978 125.04991036 140.14816936 128.24339099 135.5625 131.375 C134.86600342 131.85251709 134.16950684 132.33003418 133.4519043 132.82202148 C113.83274148 146 113.83274148 146 104 146 C104 146.66 104 147.32 104 148 C105.45599609 148.11214844 105.45599609 148.11214844 106.94140625 148.2265625 C111.7740926 148.92751425 115.68479509 151.06801134 119.9375 153.375 C120.75855225 153.81400635 121.57960449 154.2530127 122.42553711 154.70532227 C143.46182312 166.19273469 143.46182312 166.19273469 148 173 C141.67101704 175.23437001 135.67966023 177.25781553 129 178 C128.67 178.33 128.34 178.66 128 179 C118.85913658 181.22902202 109.33483588 181.97130765 100 183 C100.42708252 183.40613525 100.85416504 183.81227051 101.29418945 184.23071289 C112.4517592 194.91508548 123.35181433 205.8430221 130 220 C112.3539633 220.60309239 96.5590828 218.17912677 80 212 C80.50660156 212.88751953 80.50660156 212.88751953 81.0234375 213.79296875 C81.69246094 214.97826172 81.69246094 214.97826172 82.375 216.1875 C82.81585938 216.96480469 83.25671875 217.74210938 83.7109375 218.54296875 C84.99255607 220.98581141 86.0137879 223.42533972 87 226 C87.30679688 226.75539063 87.61359375 227.51078125 87.9296875 228.2890625 C97 250.70247934 97 250.70247934 97 260 C91.74393055 258.6826047 87.35070352 256.81363921 82.625 254.1875 C81.96580566 253.82712646 81.30661133 253.46675293 80.62744141 253.09545898 C79.32627065 252.38315673 78.02656651 251.66816728 76.72851562 250.95019531 C75.32251555 250.17729245 73.90503009 249.42531083 72.484375 248.6796875 C65.60677711 245.03710788 59.3369582 240.4956164 53 236 C53.16226074 236.49604736 53.32452148 236.99209473 53.49169922 237.50317383 C54.19952691 240.98009687 54.14249365 244.41687507 54.1328125 247.94921875 C54.13376923 248.72127151 54.13472595 249.49332428 54.13571167 250.28877258 C54.13639125 251.92192669 54.13455247 253.55508352 54.13037109 255.18823242 C54.12505618 257.66135909 54.13030467 260.13430111 54.13671875 262.60742188 C54.13605722 264.20052123 54.13477451 265.79362047 54.1328125 267.38671875 C54.13483673 268.11517502 54.13686096 268.84363129 54.13894653 269.59416199 C54.11577291 274.7929377 53.64040532 279.84019013 53 285 C40.52069194 279.07988363 31.64358119 265.91462831 23.9375 254.9375 C23.54288574 254.37699951 23.14827148 253.81649902 22.74169922 253.23901367 C20 249.24566916 20 249.24566916 20 247 C19.34 247 18.68 247 18 247 C17.94501343 247.90661377 17.94501343 247.90661377 17.88891602 248.83154297 C17.38587248 255.28965193 16.04132336 261.01186241 13.9375 267.125 C13.63384521 268.02500732 13.33019043 268.92501465 13.01733398 269.85229492 C10.0751455 278.29084667 6.26794168 286.1625071 2 294 C1.34 294 0.68 294 0 294 C-15.64608998 262.47552002 -15.64608998 262.47552002 -16 247 C-16.66 247 -17.32 247 -18 247 C-18.26039063 247.72316406 -18.52078125 248.44632813 -18.7890625 249.19140625 C-24.30244064 261.97888652 -37.78040635 276.89975526 -49 285 C-49.66 285 -50.32 285 -51 285 C-51.8597283 275.69182554 -52.15408275 266.47025673 -52.125 257.125 C-52.12886719 255.85914063 -52.13273437 254.59328125 -52.13671875 253.2890625 C-52.13056331 247.42907915 -52.08457947 241.76720828 -51 236 C-51.47606689 236.34667725 -51.95213379 236.69335449 -52.44262695 237.05053711 C-65.67688292 246.60466223 -79.29818326 255.13218718 -95 260 C-95.36765523 254.60487319 -94.07598973 250.44408517 -92.3125 245.4375 C-92.03994385 244.64537109 -91.7673877 243.85324219 -91.48657227 243.03710938 C-87.90674677 232.71786874 -84.12651326 222.66402286 -79 213 C-79.80179687 213.25394531 -80.60359375 213.50789062 -81.4296875 213.76953125 C-96.91251401 218.45650934 -111.8249198 220.5528192 -128 220 C-121.54750791 205.68463503 -109.01599142 193.78160863 -98 183 C-99.95667428 181.04332572 -103.68705607 181.68211974 -106.375 181.5625 C-115.56029608 181.07066794 -124.1782717 179.67802466 -133 177 C-134.97789914 176.45372309 -136.95715483 175.91234206 -138.9375 175.375 C-139.89527344 175.11460937 -140.85304688 174.85421875 -141.83984375 174.5859375 C-142.55269531 174.39257812 -143.26554687 174.19921875 -144 174 C-144 170 -144 170 -142.55737305 168.49536133 C-141.54477417 167.79576294 -141.54477417 167.79576294 -140.51171875 167.08203125 C-139.75125244 166.55375732 -138.99078613 166.0254834 -138.20727539 165.48120117 C-137.37574951 164.93052979 -136.54422363 164.3798584 -135.6875 163.8125 C-134.41797485 162.95845581 -134.41797485 162.95845581 -133.12280273 162.0871582 C-111.64429552 148 -111.64429552 148 -102 148 C-102 147.34 -102 146.68 -102 146 C-103.29808594 145.76539063 -104.59617188 145.53078125 -105.93359375 145.2890625 C-111.14682411 144.13056686 -115.43077026 141.97299039 -120.0625 139.375 C-121.21782227 138.74464844 -121.21782227 138.74464844 -122.39648438 138.1015625 C-124.26978835 137.0776448 -126.13570824 136.04023627 -128 135 C-128 134.34 -128 133.68 -128 133 C-128.56847656 132.89171875 -129.13695312 132.7834375 -129.72265625 132.671875 C-136.10643077 130.78849727 -141.58946077 125.83736561 -146 121 C-139.01866123 118.49780648 -132.08817414 116.84489288 -124.8125 115.4375 C-123.71494385 115.22134033 -122.6173877 115.00518066 -121.48657227 114.7824707 C-113.68616082 113.2684595 -105.89183777 111.94589111 -98 111 C-98.85980469 110.18660156 -99.71960938 109.37320313 -100.60546875 108.53515625 C-110.87131084 98.64665954 -121.23044938 87.678368 -128 75 C-128 74.34 -128 73.68 -128 73 C-126.06257659 72.97296619 -124.12504521 72.95358875 -122.1875 72.9375 C-121.10855469 72.92589844 -120.02960938 72.91429687 -118.91796875 72.90234375 C-116 73 -116 73 -113 74 C-110.60668969 74.29229062 -108.2102539 74.55923281 -105.8125 74.8125 C-97.07977124 75.81113076 -86.93522279 77.03238861 -79 81 C-79.58007812 79.84886719 -80.16015625 78.69773437 -80.7578125 77.51171875 C-84.89910864 69.13500609 -88.67691966 60.79446593 -91.5 51.875 C-91.74250488 51.11920654 -91.98500977 50.36341309 -92.23486328 49.5847168 C-93.80558502 44.39676567 -94.52955674 39.39940556 -95 34 C-87.91026876 36.12691937 -81.7137575 39.03891954 -75.25 42.625 C-74.29077637 43.1519043 -73.33155273 43.67880859 -72.34326172 44.22167969 C-64.88463612 48.37639177 -57.83938767 52.889816 -51 58 C-51.16242188 57.13632813 -51.32484375 56.27265625 -51.4921875 55.3828125 C-52.36334927 49.25389702 -52.14386746 43.05094935 -52.125 36.875 C-52.12886719 35.63234375 -52.13273437 34.3896875 -52.13671875 33.109375 C-52.12828323 25.02815149 -51.74321539 17.0467033 -51 9 C-36.93971427 15.70786258 -25.44557883 31.69158514 -18 45 C-18 45.66 -18 46.32 -18 47 C-17.34 47 -16.68 47 -16 47 C-15.94501343 46.09338623 -15.94501343 46.09338623 -15.88891602 45.16845703 C-15.38587248 38.71034807 -14.04132336 32.98813759 -11.9375 26.875 C-11.63384521 25.97499268 -11.33019043 25.07498535 -11.01733398 24.14770508 C-8.0751455 15.70915333 -4.26794168 7.8374929 0 0 Z " fill="#FBE402" transform="translate(255,109)"/>
<path d="M0 0 C3.48173161 3.16642561 4.74813253 6.90708953 6.3125 11.25 C6.6130127 12.07612793 6.91352539 12.90225586 7.22314453 13.75341797 C9.59325454 20.460219 11.56418859 27.24782288 13.375 34.125 C13.75072144 35.54474121 13.75072144 35.54474121 14.1340332 36.99316406 C15.57429398 42.66603815 16.48725251 48.16898788 17 54 C17.63164062 53.53851563 18.26328125 53.07703125 18.9140625 52.6015625 C20.84326317 51.1949695 22.77593003 49.79312525 24.7109375 48.39453125 C26.840478 46.85260255 28.94221537 45.28667757 31.0390625 43.69921875 C58.68510342 23 58.68510342 23 66 23 C66.94013643 31.05370092 67.07094172 38.90306557 66.75 47 C66.70625244 48.16958252 66.66250488 49.33916504 66.61743164 50.54418945 C66.16917921 60.51831771 64.89669898 70.20635307 63 80 C64.04414063 79.62488281 65.08828125 79.24976563 66.1640625 78.86328125 C83.36272298 72.82768954 100.84603697 68.74257238 119 67 C118.05950743 72.92757816 116.71015648 78.12163899 114.125 83.5390625 C112.82847906 86.37520206 111.76452573 89.26110773 110.6875 92.1875 C107.96157507 99.39416402 104.55089816 106.17449836 101 113 C100.34 113 99.68 113 99 113 C98.34 115.31 97.68 117.62 97 120 C98.26251587 119.97715942 98.26251587 119.97715942 99.55053711 119.95385742 C108.31449233 119.86499066 116.84458465 120.37694155 125.5625 121.3125 C126.77357422 121.43044922 127.98464844 121.54839844 129.23242188 121.66992188 C137.33230743 122.51591956 145.11084891 123.98422255 153 126 C151.59431705 130.53010489 150.49052259 132.79249276 147 136 C145.86231048 137.25948597 144.73863552 138.53169623 143.625 139.8125 C143.02558594 140.49957031 142.42617188 141.18664062 141.80859375 141.89453125 C140.62123046 143.27679651 139.44624161 144.66980798 138.28515625 146.07421875 C137.75792969 146.70972656 137.23070312 147.34523437 136.6875 148 C135.98173828 148.86625 135.98173828 148.86625 135.26171875 149.75 C134 151 134 151 132 151 C131.65775391 151.86431641 131.65775391 151.86431641 131.30859375 152.74609375 C129.65322058 155.59728874 127.678724 157.06863765 125.0625 159.0625 C122.20431453 161.2555996 119.48042122 163.38428307 117 166 C116 167 115 168 114 169 C114.65226562 169.10183594 115.30453125 169.20367187 115.9765625 169.30859375 C128.74984009 172.22961459 140.66455575 178.62381261 152 185 C154.14452747 186.16906532 156.29022883 187.33598183 158.4375 188.5 C159.9587422 189.33258671 161.4797509 190.16560133 163 191 C163 191.66 163 192.32 163 193 C163.99 193 164.98 193 166 193 C166 193.66 166 194.32 166 195 C165.01 195 164.02 195 163 195 C163 195.66 163 196.32 163 197 C159.95163081 198.67890744 156.89627325 200.34454762 153.83642578 202.00244141 C152.55214982 202.70006858 151.26939256 203.40049556 149.98779297 204.10302734 C141.49521871 208.75190363 133.23447153 212.99272144 124 216 C122.47649708 216.57632512 120.95540926 217.15909961 119.4375 217.75 C116 219 116 219 114 219 C114 219.66 114 220.32 114 221 C115.0828125 221.3403125 115.0828125 221.3403125 116.1875 221.6875 C119.57728187 223.26939821 121.38259784 225.32933675 124 228 C125.93225201 229.73502904 127.87000355 231.4639481 129.8125 233.1875 C134.49373506 237.40313028 138.49394003 241.82784997 142.32421875 246.84765625 C144.35126351 249.45115663 146.63664975 251.70229836 149 254 C153 258.54054054 153 258.54054054 153 262 C144.0755983 264.2611567 135.28117063 265.76340734 126.125 266.6875 C124.2982373 266.87856323 124.2982373 266.87856323 122.43457031 267.07348633 C113.92075428 267.91998537 105.55058081 268.39262871 97 268 C97.66 270.31 98.32 272.62 99 275 C99.66 275 100.32 275 101 275 C106.94761165 286.6353762 112.07103979 298.10881235 116.25 310.5 C116.65629639 311.70438721 116.65629639 311.70438721 117.07080078 312.93310547 C119 318.75553071 119 318.75553071 119 321 C110.33294757 320.10259403 101.82363758 318.89136391 93.3125 317 C92.18255615 316.7510498 92.18255615 316.7510498 91.02978516 316.49707031 C87.18802013 315.61563763 83.63803205 314.49623872 80 313 C78.0077043 312.47013412 76.00701916 311.97103511 74 311.5 C70.17092383 310.60133927 66.62012503 309.54387685 63 308 C63.20496094 308.96292969 63.40992188 309.92585938 63.62109375 310.91796875 C65.59044227 320.9251768 66.39910737 330.80860456 66.75 341 C66.79439209 342.2274292 66.83878418 343.4548584 66.88452148 344.71948242 C67.07484896 351.5680141 66.91182376 358.20632598 66 365 C48.99692451 357.12391599 30.00825184 346.78101927 17 333 C16.90203125 333.90878906 16.8040625 334.81757813 16.703125 335.75390625 C15.2679805 347.81654319 12.79519009 359.34990716 8.00390625 370.5859375 C6.50843998 374.18203927 5.2795556 377.86791785 4.02734375 381.5546875 C2.97771627 384.05304037 1.71345884 385.91278385 0 388 C-4.8403477 383.46217403 -9.14689594 378.40199452 -13 373 C-13 372.34 -13 371.68 -13 371 C-13.99 370.67 -14.98 370.34 -16 370 C-17.5 368.328125 -17.5 368.328125 -19 366.25 C-19.52335938 365.52554687 -20.04671875 364.80109375 -20.5859375 364.0546875 C-22.16589827 361.7589434 -23.60380795 359.41160445 -25 357 C-27.04999183 353.89194787 -29.13066509 350.81126153 -31.25 347.75 C-33 345 -33 345 -33 343 C-33.66 343 -34.32 343 -35 343 C-35 343.66 -35 344.32 -35 345 C-35.66 345 -36.32 345 -37 345 C-37.33 346.65 -37.66 348.3 -38 350 C-38.66 350 -39.32 350 -40 350 C-40.1546875 350.8353125 -40.1546875 350.8353125 -40.3125 351.6875 C-41.14178408 354.4769101 -42.34299056 356.6139064 -44 359 C-44.66 359 -45.32 359 -46 359 C-46 359.99 -46 360.98 -46 362 C-46.66 362 -47.32 362 -48 362 C-48.33 363.32 -48.66 364.64 -49 366 C-49.66 366 -50.32 366 -51 366 C-51.66 367.65 -52.32 369.3 -53 371 C-53.66 371 -54.32 371 -55 371 C-55.66 372.65 -56.32 374.3 -57 376 C-57.66 376 -58.32 376 -59 376 C-59.3403125 377.11375 -59.3403125 377.11375 -59.6875 378.25 C-61.24928606 381.52231364 -63.12235056 382.86020939 -66 385 C-66.33 385.66 -66.66 386.32 -67 387 C-68.87109375 386.35546875 -68.87109375 386.35546875 -71 385 C-72.16015625 382.42578125 -72.16015625 382.42578125 -73.0625 379.3125 C-74.04878771 375.98113334 -75.0682519 372.8437871 -76.4609375 369.65625 C-78.18560673 365.55906625 -79.40588814 361.47200447 -80.5625 357.1875 C-80.77865967 356.39577393 -80.99481934 355.60404785 -81.2175293 354.78833008 C-85.1388916 340.23498965 -85.1388916 340.23498965 -85 333 C-85.47308594 333.43570312 -85.94617188 333.87140625 -86.43359375 334.3203125 C-99.4025974 346 -99.4025974 346 -104 346 C-104 346.66 -104 347.32 -104 348 C-105.90625 349.33203125 -105.90625 349.33203125 -108.5 350.8125 C-111.6727266 352.6477046 -114.80472978 354.49849473 -117.875 356.5 C-123.02486192 359.75310208 -128.52555398 362.34489368 -134 365 C-135.499254 353.75559497 -135.0598173 342.71809388 -134.125 331.4375 C-134.04636719 330.39142578 -133.96773438 329.34535156 -133.88671875 328.26757812 C-133.33367493 321.41408898 -132.36201227 314.73903618 -131 308 C-131.66966797 308.26594971 -132.33933594 308.53189941 -133.02929688 308.8059082 C-140.85844327 311.87518123 -148.83102126 313.7069875 -157.01074219 315.53857422 C-159.71349745 316.16550199 -162.38487455 316.89904978 -165.0625 317.625 C-172.26785383 319.46402336 -179.62088928 320.20402993 -187 321 C-183.83949099 308.40935435 -179.46221547 296.66124301 -173.9375 284.9375 C-173.5139624 284.03273926 -173.0904248 283.12797852 -172.65405273 282.19580078 C-170.47824238 277.66593932 -168.26021875 273.86256864 -165 270 C-165 269.34 -165 268.68 -165 268 C-165.84175781 268.03480469 -166.68351562 268.06960938 -167.55078125 268.10546875 C-185.6918618 268.50106864 -204.42418413 266.58075792 -222 262 C-215.22028827 246.99515577 -198.95200347 232.85557607 -186.1953125 222.8203125 C-183.92567877 221.18724674 -183.92567877 221.18724674 -183 219 C-183.804375 218.79697266 -183.804375 218.79697266 -184.625 218.58984375 C-200.80066981 214.1468555 -216.16781135 205.94709743 -230.5 197.3515625 C-231.1703125 196.95018066 -231.840625 196.54879883 -232.53125 196.13525391 C-233.0159375 195.76062012 -233.500625 195.38598633 -234 195 C-234 194.34 -234 193.68 -234 193 C-193.17234469 169 -193.17234469 169 -183 169 C-183.825 168.21625 -184.65 167.4325 -185.5 166.625 C-188 164 -188 164 -188 162 C-188.556875 161.7525 -189.11375 161.505 -189.6875 161.25 C-192.42410913 159.77075182 -194.67650869 158.06532561 -197 156 C-197 155.34 -197 154.68 -197 154 C-198.32 153.34 -199.64 152.68 -201 152 C-201 151.34 -201 150.68 -201 150 C-201.556875 149.79375 -202.11375 149.5875 -202.6875 149.375 C-205.97012371 147.42316968 -207.70673246 145.05769006 -210 142 C-210 141.34 -210 140.68 -210 140 C-210.61875 139.773125 -211.2375 139.54625 -211.875 139.3125 C-214.6219805 137.61583557 -214.86635273 135.94748289 -216 133 C-216.99 132.67 -217.98 132.34 -219 132 C-222 128.55555556 -222 128.55555556 -222 126 C-203.59302826 121.1214605 -183.97059822 119.93562474 -165 119 C-165.36351562 118.41734375 -165.72703125 117.8346875 -166.1015625 117.234375 C-171.68507639 108.12895235 -176.50943993 98.91245591 -179.9921875 88.80078125 C-181.45772159 84.72795976 -183.20430792 80.78403188 -184.94921875 76.82421875 C-186.04450975 73.8803697 -186.58240663 71.10671111 -187 68 C-176.89431666 68.03053077 -167.4630391 69.5482005 -157.625 71.8125 C-156.53268066 72.06080566 -155.44036133 72.30911133 -154.31494141 72.56494141 C-148.3595883 73.98658853 -142.75967617 75.71511123 -137.13427734 78.1394043 C-135.10285844 78.95852482 -133.13499225 79.52424499 -131 80 C-131.20496094 78.90945312 -131.40992188 77.81890625 -131.62109375 76.6953125 C-134.16953053 62.64034526 -135.04699805 48.83073922 -135.125 34.5625 C-135.12975342 33.84634521 -135.13450684 33.13019043 -135.1394043 32.39233398 C-135.1293388 29.31788474 -134.98004491 26.94013473 -134 24 C-130.85262818 24.69941596 -127.97411124 25.76078698 -125 27 C-125 27.66 -125 28.32 -125 29 C-122.69 29.66 -120.38 30.32 -118 31 C-118 31.66 -118 32.32 -118 33 C-115.34771188 34.07525194 -112.71631546 35.09456151 -110 36 C-110 36.66 -110 37.32 -110 38 C-109.01 38 -108.02 38 -107 38 C-107 38.66 -107 39.32 -107 40 C-106.01 40 -105.02 40 -104 40 C-104 40.66 -104 41.32 -104 42 C-103.401875 42.12375 -102.80375 42.2475 -102.1875 42.375 C-100 43 -100 43 -97 45 C-97 45.66 -97 46.32 -97 47 C-95.68 47.33 -94.36 47.66 -93 48 C-93 48.66 -93 49.32 -93 50 C-92.236875 50.268125 -91.47375 50.53625 -90.6875 50.8125 C-88.08770098 51.9612484 -86.89784008 52.9685876 -85 55 C-84.96406738 54.34588135 -84.92813477 53.6917627 -84.89111328 53.01782227 C-84.3721978 45.69283206 -82.91414092 38.97934801 -80.875 31.9375 C-80.56876709 30.85927979 -80.26253418 29.78105957 -79.94702148 28.67016602 C-77.1945324 19.20993041 -73.81439733 10.07803376 -70 1 C-67 1 -67 1 -64.5625 3.125 C-62.04853316 5.94554816 -60.09229306 8.8615604 -58 12 C-57.236875 12.763125 -56.47375 13.52625 -55.6875 14.3125 C-50.71557137 19.28442863 -46.47109361 24.88426364 -43 31 C-42.319375 31.969375 -41.63875 32.93875 -40.9375 33.9375 C-39.04493155 36.92897917 -37.96831754 39.61088862 -37 43 C-36.34 43 -35.68 43 -35 43 C-35 43.66 -35 44.32 -35 45 C-34.34 45 -33.68 45 -33 45 C-32.76152344 44.31808594 -32.52304687 43.63617188 -32.27734375 42.93359375 C-30.73137655 39.3830697 -28.72010259 36.2606131 -26.5625 33.0625 C-26.12292969 32.40862305 -25.68335938 31.75474609 -25.23046875 31.08105469 C-17.67225532 19.98393201 -9.19391043 9.77226922 0 0 Z M-35 47 C-46.49467063 69.43454162 -46.49467063 69.43454162 -51 94 C-51.66 94 -52.32 94 -53 94 C-53.2475 93.29875 -53.495 92.5975 -53.75 91.875 C-57.90957874 82.30796891 -65.62012983 74.2765198 -72.625 66.6875 C-73.17534912 66.08873047 -73.72569824 65.48996094 -74.29272461 64.87304688 C-77.32934313 61.62106209 -80.35650571 58.58879858 -84 56 C-84.66 56 -85.32 56 -86 56 C-86.8597283 65.30817446 -87.15408275 74.52974327 -87.125 83.875 C-87.12886719 85.14085937 -87.13273437 86.40671875 -87.13671875 87.7109375 C-87.13056331 93.57092085 -87.08457947 99.23279172 -86 105 C-86.93457031 104.32195312 -87.86914062 103.64390625 -88.83203125 102.9453125 C-96.28456611 97.63017733 -103.83707835 92.7752449 -111.9375 88.5 C-113.08859253 87.88729248 -113.08859253 87.88729248 -114.26293945 87.26220703 C-119.36525545 84.62935697 -124.5054425 82.65836622 -130 81 C-129.46824588 88.3306104 -127.74218996 94.74492048 -125.375 101.6875 C-125.02179688 102.73808594 -124.66859375 103.78867188 -124.3046875 104.87109375 C-121.51150207 112.9713315 -118.20588249 120.53455858 -114 128 C-114.54527344 127.80664062 -115.09054688 127.61328125 -115.65234375 127.4140625 C-124.52739052 124.34951644 -133.1972355 122.74819809 -142.50415039 121.69702148 C-145.48644977 121.35411655 -148.14157658 120.95280781 -151 120 C-153.06145107 119.931009 -155.12501401 119.91532273 -157.1875 119.9375 C-158.27417969 119.94652344 -159.36085938 119.95554687 -160.48046875 119.96484375 C-161.31191406 119.97644531 -162.14335937 119.98804688 -163 120 C-161.50790771 124.29979283 -159.26347744 127.83122077 -156.625 131.5 C-156.1909082 132.10585937 -155.75681641 132.71171875 -155.30957031 133.3359375 C-149.51356009 141.24443552 -142.7490084 148.26786424 -135.82128906 155.18359375 C-134.89026367 156.11300781 -133.95923828 157.04242188 -133 158 C-134.03294189 158.16604736 -135.06588379 158.33209473 -136.13012695 158.50317383 C-140.01327376 159.12902575 -143.89510436 159.76274554 -147.77661133 160.39868164 C-149.44716818 160.67129104 -151.11806106 160.94185032 -152.78930664 161.21020508 C-162.00412395 162.69130562 -171.06625341 164.22075071 -180 167 C-180 167.99 -180 168.98 -180 170 C-178.44196662 171.55400296 -178.44196662 171.55400296 -176.375 172.9375 C-175.64667969 173.45441406 -174.91835937 173.97132813 -174.16796875 174.50390625 C-173.45253906 174.99761719 -172.73710937 175.49132812 -172 176 C-171.41863281 176.42152344 -170.83726562 176.84304687 -170.23828125 177.27734375 C-167.58080701 179.15832678 -166.33340501 180 -163 180 C-163 180.66 -163 181.32 -163 182 C-160.36119267 183.47239996 -157.71505962 184.92774572 -155.0625 186.375 C-154.32708984 186.7875 -153.59167969 187.2 -152.83398438 187.625 C-147.60241794 190.45781327 -142.85774381 191.94130152 -137 193 C-137 193.66 -137 194.32 -137 195 C-138.24136719 195.14308594 -138.24136719 195.14308594 -139.5078125 195.2890625 C-143.63688815 196.12965732 -147.081971 197.5794548 -150.875 199.375 C-151.60807373 199.72006592 -152.34114746 200.06513184 -153.09643555 200.4206543 C-162.78466635 205.15129647 -171.4324346 211.50418845 -180 218 C-179.67 218.99 -179.34 219.98 -179 221 C-176.24619413 221.83837427 -173.62286249 222.49482079 -170.8125 223.0625 C-169.29761334 223.38407441 -167.78327634 223.70825033 -166.26953125 224.03515625 C-165.53686035 224.19258301 -164.80418945 224.35000977 -164.04931641 224.51220703 C-161.30605332 225.16517816 -158.67392109 226.10869297 -156 227 C-151.2300261 227.98666584 -146.47644336 228.29492491 -141.625 228.5625 C-140.88894531 228.60568359 -140.15289062 228.64886719 -139.39453125 228.69335938 C-137.59651932 228.79843799 -135.79828042 228.89962093 -134 229 C-134 231 -134 231 -135.1706543 232.31835938 C-135.71633057 232.82173828 -136.26200684 233.32511719 -136.82421875 233.84375 C-137.43507324 234.4222168 -138.04592773 235.00068359 -138.67529297 235.59667969 C-139.33932129 236.22477539 -140.00334961 236.85287109 -140.6875 237.5 C-148.96375382 245.52413479 -159.28054733 255.84164198 -163 267 C-153.29391866 267.46342033 -144.1334126 266.95438747 -134.5625 265.1875 C-133.66450684 265.02217773 -132.76651367 264.85685547 -131.84130859 264.68652344 C-125.768424 263.49813143 -119.89363612 261.88003744 -114 260 C-114.25168945 260.50225098 -114.50337891 261.00450195 -114.76269531 261.52197266 C-119.41595741 270.8775459 -123.64911262 279.88687035 -126.2265625 290.04296875 C-126.90620931 292.64141638 -127.73196721 295.02029628 -128.75 297.5 C-129.97903603 300.9413009 -130.27126292 303.38316104 -130 307 C-123.62710056 305.07653279 -117.80993552 302.62580033 -111.9375 299.5 C-111.12692139 299.07219238 -110.31634277 298.64438477 -109.48120117 298.20361328 C-101.22542206 293.74698937 -93.5852136 288.50320325 -86 283 C-86.16242188 283.86367188 -86.32484375 284.72734375 -86.4921875 285.6171875 C-87.36334927 291.74610298 -87.14386746 297.94905065 -87.125 304.125 C-87.12886719 305.36765625 -87.13273437 306.6103125 -87.13671875 307.890625 C-87.12828323 315.97184851 -86.74321539 323.9532967 -86 332 C-76.30392934 327.36274881 -69.42929896 318.34131656 -63 310 C-62.58766113 309.47374023 -62.17532227 308.94748047 -61.75048828 308.40527344 C-56.07728754 301.85009965 -56.07728754 301.85009965 -53 294 C-52.34 294 -51.68 294 -51 294 C-51.00902344 294.56203125 -51.01804688 295.1240625 -51.02734375 295.703125 C-50.46315395 311.6966793 -42.44302965 327.15789811 -35 341 C-34.34 341 -33.68 341 -33 341 C-27.69049597 330.60786689 -22.71871586 320.26994537 -19.375 309.0625 C-19.0044751 307.83128418 -19.0044751 307.83128418 -18.62646484 306.57519531 C-17.40976521 302.27434512 -16.7246527 298.51424645 -17 294 C-16.34 294 -15.68 294 -15 294 C-14.73960937 294.72316406 -14.47921875 295.44632813 -14.2109375 296.19140625 C-8.69755936 308.97888652 4.78040635 323.89975526 16 332 C16.66 332 17.32 332 18 332 C18.73352029 326.08995348 19.14935137 320.33853278 19.1328125 314.38671875 C19.13376923 313.60988235 19.13472595 312.83304596 19.13571167 312.03266907 C19.13638614 310.40841591 19.13458361 308.78415994 19.13037109 307.15991211 C19.12497547 304.67620852 19.1303597 302.19268273 19.13671875 299.70898438 C19.13605855 298.12239544 19.1347786 296.53580661 19.1328125 294.94921875 C19.13584885 293.84135262 19.13584885 293.84135262 19.13894653 292.71110535 C19.12355265 289.33460734 19.05577519 286.22761063 18 283 C18.92619141 283.65355469 18.92619141 283.65355469 19.87109375 284.3203125 C21.65785406 285.57675583 23.44852515 286.8276484 25.2421875 288.07421875 C26.86319924 289.20617171 28.47643264 290.34968358 30.0703125 291.51953125 C36.8925746 296.37537663 44.46842336 299.65284519 52.06396484 303.09912109 C53.86158501 303.93559252 55.62975663 304.83457042 57.39453125 305.73828125 C59.8175255 307.14528102 59.8175255 307.14528102 62 307 C60.70942644 298.61127189 58.7042468 290.60160992 56 282.5625 C55.73960937 281.76134766 55.47921875 280.96019531 55.2109375 280.13476562 C54.95570313 279.36970703 54.70046875 278.60464844 54.4375 277.81640625 C54.20933594 277.13006104 53.98117187 276.44371582 53.74609375 275.73657227 C53.03666133 273.78962407 53.03666133 273.78962407 51 272 C50.28606072 270.37411485 49.62483712 268.72466437 49 267.0625 C47.85524202 264.02620833 46.81542897 261.72314345 45 259 C45.87398437 259.32613281 46.74796875 259.65226563 47.6484375 259.98828125 C63.33012203 265.56070374 78.39224549 267.5676068 95 267 C88.02683171 252.43725075 76.49499298 241.04190567 65 230 C70.24088542 229.25130208 75.48177083 228.50260417 80.72265625 227.75390625 C81.62516113 227.62387207 82.52766602 227.49383789 83.45751953 227.35986328 C85.04059527 227.13579437 86.62477948 226.91926309 88.21044922 226.71435547 C91.38540467 226.52094838 91.38540467 226.52094838 94 225 C97.48192877 224.20243778 100.98159395 223.51622966 104.484375 222.81640625 C107.5076308 222.11433907 110.16840486 221.24827954 113 220 C109.40783356 216.1917634 105.62958342 213.13194721 101.25 210.25 C100.60675781 209.82533447 99.96351563 209.40066895 99.30078125 208.96313477 C94.31926557 205.73554765 89.21967937 202.76224062 84 199.9375 C83.30680664 199.55561523 82.61361328 199.17373047 81.89941406 198.78027344 C77.54266741 196.4873595 73.91153665 195.41568995 69 195 C69 194.34 69 193.68 69 193 C69.72960937 192.86980469 70.45921875 192.73960937 71.2109375 192.60546875 C83.37218799 189.96542137 94.10532757 182.78402601 104.1875 175.8125 C105.33907593 175.02746094 105.33907593 175.02746094 106.51391602 174.2265625 C107.22475342 173.72511719 107.93559082 173.22367187 108.66796875 172.70703125 C109.31016357 172.2581958 109.9523584 171.80936035 110.61401367 171.34692383 C111.07138916 170.90243896 111.52876465 170.4579541 112 170 C112 169.01 112 168.02 112 167 C95.43945914 162.31260553 80.25870491 159.46066547 63 160 C63 159.34 63 158.68 63 158 C63.82177734 157.66162109 63.82177734 157.66162109 64.66015625 157.31640625 C67.69011867 155.61173624 70.00232132 153.38032003 72.4375 150.9375 C72.95175537 150.4223584 73.46601074 149.9072168 73.99584961 149.37646484 C78.3570601 144.8858825 82.25502923 140.08932087 86.0625 135.125 C86.610271 134.41206787 87.15804199 133.69913574 87.72241211 132.96459961 C90.59981874 129.13150379 93.01162795 125.3895549 95 121 C84.78352066 120.79567041 75.02567559 120.75692549 65 123 C64.29858887 123.15549316 63.59717773 123.31098633 62.87451172 123.47119141 C54.20935408 125.08468329 54.20935408 125.08468329 46 128 C46.50789062 126.98164063 47.01578125 125.96328125 47.5390625 124.9140625 C54.40719384 110.89483682 60.22248692 96.62985639 62 81 C57.18959224 82.46695097 52.8432466 84.42202438 48.375 86.6875 C47.6742334 87.04126709 46.9734668 87.39503418 46.25146484 87.75952148 C36.34144869 92.81166443 26.99657306 98.45160943 18 105 C18.24363281 103.70449219 18.24363281 103.70449219 18.4921875 102.3828125 C19.36334927 96.25389702 19.14386746 90.05094935 19.125 83.875 C19.12886719 82.63234375 19.13273438 81.3896875 19.13671875 80.109375 C19.12828323 72.02815149 18.74321539 64.0467033 18 56 C5.88315328 61.76567268 -2.56114108 74.17997599 -10.18139648 84.80908203 C-10.63200439 85.43540527 -11.0826123 86.06172852 -11.546875 86.70703125 C-12.14773926 87.54971558 -12.14773926 87.54971558 -12.76074219 88.40942383 C-14.0619109 90.07946208 -15.47481344 91.53426143 -17 93 C-17.05607422 92.07380859 -17.05607422 92.07380859 -17.11328125 91.12890625 C-17.59134019 84.9703823 -18.77479063 79.74414513 -21 74 C-21.43570313 72.85273438 -21.87140625 71.70546875 -22.3203125 70.5234375 C-25.44412417 62.43386043 -28.96534893 54.68300576 -33 47 C-33.66 47 -34.32 47 -35 47 Z " fill="#83BC1E" transform="translate(290,62)"/>
<path d="M0 0 C3.38259385 5.07389077 3.12681641 10.75168445 3.1328125 16.7109375 C3.13410156 17.95617187 3.13539063 19.20140625 3.13671875 20.484375 C3.13285156 21.76828125 3.12898438 23.0521875 3.125 24.375 C3.12886719 25.65117187 3.13273437 26.92734375 3.13671875 28.2421875 C3.12982673 34.91365876 2.90740343 41.38891784 2 48 C2.44988281 47.28457031 2.89976562 46.56914062 3.36328125 45.83203125 C11.45118528 33.3030737 21.09628692 19.86811773 34 12 C33.67951216 20.07990463 31.57267641 26.96372804 28.75 34.5 C28.36714844 35.56347656 27.98429688 36.62695312 27.58984375 37.72265625 C25.14409768 44.38915473 22.32594483 50.72661618 19 57 C19.84820312 56.3709375 20.69640625 55.741875 21.5703125 55.09375 C45.12535642 37.82411935 45.12535642 37.82411935 57 35 C59.2734375 35.41015625 59.2734375 35.41015625 61 36 C52.91249711 48.62708217 43.76155529 59.56956949 33 70 C32.34 70.66 31.68 71.32 31 72 C31.7528125 71.74605469 32.505625 71.49210937 33.28125 71.23046875 C46.1144387 67.07214183 59.89801947 63.78537101 73.4375 63.9375 C74.48808594 63.94652344 75.53867187 63.95554688 76.62109375 63.96484375 C77.40613281 63.97644531 78.19117188 63.98804688 79 64 C67.84446268 75.60834511 53.23536119 83.92154627 38 89 C38.63800537 89.06993164 39.27601074 89.13986328 39.93334961 89.21191406 C55.30775891 90.92923158 70.32522028 92.92026856 85 98 C84 100 84 100 82.24780273 100.73022461 C79.64883675 101.48504615 77.04910645 102.22734582 74.4375 102.9375 C72.98706299 103.33509521 72.98706299 103.33509521 71.50732422 103.74072266 C60.49090237 106.6098948 49.31061964 107.90081152 38 109 C38.99257813 109.4125 39.98515625 109.825 41.0078125 110.25 C54.32886785 115.87389536 67.2603343 122.07694483 78 132 C78 132.33 78 132.66 78 133 C62.27541592 133.44856183 48.01279228 131.71438294 33 127 C32.67 127 32.34 127 32 127 C33.43279297 128.36318359 33.43279297 128.36318359 34.89453125 129.75390625 C44.9277598 139.4513054 54.24586614 149.67589861 61 162 C61 162.66 61 163.32 61 164 C60.30261719 163.71640625 59.60523438 163.4328125 58.88671875 163.140625 C56.94211806 162.37225775 54.98574575 161.6331138 53.01953125 160.921875 C40.71436249 156.42546741 30.62072431 149.49110649 20 142 C21.00768671 145.02306012 22.29353239 147.69773192 23.6875 150.5625 C28.86950777 161.75263271 33.59873208 173.56069438 34 186 C20.43703043 176.57613831 9.43151054 163.7457712 2 149 C2.07001221 149.54060059 2.14002441 150.08120117 2.2121582 150.63818359 C3.05755739 157.94105722 3.18617655 165.21600043 3.18530273 172.55957031 C3.18750368 174.6284603 3.20577099 176.69682772 3.22460938 178.765625 C3.25209083 185.47049664 3.08571889 191.58620832 1 198 C-1.22303376 195.9502662 -2.61988119 194.10792103 -3.90234375 191.375 C-4.23347168 190.67375 -4.56459961 189.9725 -4.90576172 189.25 C-5.24623535 188.5075 -5.58670898 187.765 -5.9375 187 C-6.29086426 186.236875 -6.64422852 185.47375 -7.00830078 184.6875 C-11.94734555 173.89316865 -16.51289215 163.05296545 -16 151 C-16.66 151 -17.32 151 -18 151 C-18.07347656 151.96099609 -18.07347656 151.96099609 -18.1484375 152.94140625 C-18.22320312 153.80636719 -18.29796875 154.67132813 -18.375 155.5625 C-18.47941406 156.83287109 -18.47941406 156.83287109 -18.5859375 158.12890625 C-20.40770741 170.76099006 -26.42555386 185.04919061 -33 196 C-33.66 196.33 -34.32 196.66 -35 197 C-37.23796895 188.94154263 -37.26480598 181.26620222 -37.1875 172.9375 C-37.1860396 171.6009121 -37.18538362 170.26432307 -37.18554688 168.92773438 C-37.15672657 162.53282937 -37.00625474 156.31927979 -36 150 C-36.44988281 150.71542969 -36.89976562 151.43085938 -37.36328125 152.16796875 C-44.95286475 163.92497886 -55.18678354 179.59339177 -68 186 C-67.61992682 178.37562785 -65.90343249 171.78173394 -63.3125 164.625 C-62.95671875 163.62073975 -62.6009375 162.61647949 -62.234375 161.58178711 C-59.65005063 154.43147566 -56.75984649 147.62245688 -53 141 C-54.23363281 141.87011719 -54.23363281 141.87011719 -55.4921875 142.7578125 C-82.24814412 161.5329324 -82.24814412 161.5329324 -95 164 C-89.82747809 149.44725702 -76.78252982 137.54291805 -66 127 C-67.01578125 127.26554687 -68.0315625 127.53109375 -69.078125 127.8046875 C-83.63153471 131.56476259 -96.96185894 133.30076282 -112 133 C-107.40268039 128.23119956 -102.48106087 124.67103612 -97 121 C-96.38511719 120.566875 -95.77023438 120.13375 -95.13671875 119.6875 C-88.3205031 115.0929777 -80.54475211 112.17721964 -73 109 C-73.82854492 108.88724731 -73.82854492 108.88724731 -74.67382812 108.7722168 C-107.65926893 104.25277415 -107.65926893 104.25277415 -119 100 C-119 99.34 -119 98.68 -119 98 C-104.19622585 92.22983883 -88.66600692 90.80373263 -73 89 C-73.55469971 88.75910645 -74.10939941 88.51821289 -74.6809082 88.27001953 C-86.00945877 83.30036863 -96.95785427 77.73641786 -107.0625 70.5625 C-107.66408936 70.13759277 -108.26567871 69.71268555 -108.88549805 69.27490234 C-110.29956224 68.23899621 -111.65670167 67.1261566 -113 66 C-113 65.34 -113 64.68 -113 64 C-98.5636341 63.22199226 -84.32547938 65.95110502 -70.58984375 70.23046875 C-68.13076581 71.09494222 -68.13076581 71.09494222 -66 71 C-66.4125 70.60321045 -66.825 70.2064209 -67.25 69.79760742 C-75.3220003 61.99249664 -82.80946751 54.41019478 -89 45 C-89.59683594 44.14019531 -90.19367188 43.28039062 -90.80859375 42.39453125 C-95 36.30586028 -95 36.30586028 -95 34 C-79.38356753 38.83187863 -65.94097803 47.20727527 -53 57 C-53.43570313 56.1028125 -53.87140625 55.205625 -54.3203125 54.28125 C-60.95667613 40.45564862 -66.60272294 27.41822961 -68 12 C-55.00115451 21.03189537 -45.66313731 32.92393132 -37 46 C-37.01047363 44.8855249 -37.02094727 43.7710498 -37.03173828 42.62280273 C-37.0680979 38.46495815 -37.09095832 34.30712747 -37.10986328 30.14916992 C-37.1198846 28.35389844 -37.13350533 26.55864312 -37.15087891 24.76342773 C-37.17529809 22.17427565 -37.18652198 19.58534049 -37.1953125 16.99609375 C-37.20563507 16.20101913 -37.21595764 15.40594452 -37.22659302 14.58677673 C-37.2275689 9.67537248 -36.56706771 5.6605353 -35 1 C-25.06666679 10.12157695 -20.63570496 27.06108476 -18 40 C-17.875 43 -17.875 43 -18 45 C-17.34 45 -16.68 45 -16 45 C-16.00902344 44.42636719 -16.01804687 43.85273438 -16.02734375 43.26171875 C-15.48797775 27.80771038 -7.56297122 13.14189025 0 0 Z " fill="#FDFEFA" transform="translate(273,157)"/>
<path d="M0 0 C0.66 0.33 1.32 0.66 2 1 C-0.31 3.31 -2.62 5.62 -5 8 C-5.33 7.01 -5.66 6.02 -6 5 C-4.02 3.35 -2.04 1.7 0 0 Z M-10 8 C-8.68 8.33 -7.36 8.66 -6 9 C-6.99 9.66 -7.98 10.32 -9 11 C-9.33 10.01 -9.66 9.02 -10 8 Z " fill="#EFE20A" transform="translate(213,336)"/>
<path d="M0 0 C1.00000429 4.00001715 0.80688405 6.05523353 0 10 C-1.65 9.67 -3.3 9.34 -5 9 C-3.35 6.03 -1.7 3.06 0 0 Z " fill="#F9EA32" transform="translate(237,305)"/>
<path d="M0 0 C3 3 3 3 4 6 C3.0625 8.6875 3.0625 8.6875 2 11 C1.67 11 1.34 11 1 11 C0.67 7.37 0.34 3.74 0 0 Z " fill="#FBED4E" transform="translate(274,305)"/>
<path d="M0 0 C0.66 0 1.32 0 2 0 C2 2.64 2 5.28 2 8 C1.01 8.33 0.02 8.66 -1 9 C-0.67 6.03 -0.34 3.06 0 0 Z " fill="#FAEB3F" transform="translate(255,308)"/>
<path d="M0 0 C0.33 1.32 0.66 2.64 1 4 C1.66 4 2.32 4 3 4 C1.92598892 6.91517292 1.22189824 8.77810176 -1 11 C-0.67 7.37 -0.34 3.74 0 0 Z " fill="#FBEC41" transform="translate(275,196)"/>
<path d="" fill="#00953E" transform="translate(0,0)"/>
<path d="" fill="#00953E" transform="translate(0,0)"/>
</svg>
